<?xml version="1.0"?>
<svg xmlns="http://www.w3.org/2000/svg" height="512px" viewBox="0 0 496 496" width="512px"><g><path d="m496 152c0-22.054688-17.945312-40-40-40h-36.6875l-17.242188-17.238281 20.785157-34.640625c1.90625-3.167969 1.382812-7.234375-1.253907-9.832032-2.632812-2.578124-6.707031-3.042968-9.847656-1.074218l-45.21875 28.265625c.945313-4.351563 1.464844-8.855469 1.464844-13.480469 0-35.289062-28.710938-64-64-64-24.078125 0-45.078125 13.382812-56 33.089844-10.921875-19.707032-31.921875-33.089844-56-33.089844-35.289062 0-64 28.710938-64 64 0 4.625.519531 9.128906 1.457031 13.480469l-45.21875-28.265625c-3.132812-1.976563-7.207031-1.511719-9.847656 1.074218-2.628906 2.589844-3.152344 6.65625-1.246094 9.832032l20.785157 34.640625-17.242188 17.238281h-36.6875c-22.054688 0-40 17.945312-40 40 0 19.3125 13.769531 35.472656 32 39.191406v264.808594c0 22.054688 17.945312 40 40 40h352c22.054688 0 40-17.945312 40-40v-264.808594c18.230469-3.71875 32-19.878906 32-39.191406zm-103.984375-71.566406-6.871094 11.453125c-1.886719 3.152343-1.390625 7.175781 1.199219 9.777343l10.34375 10.335938h-50.496094c2.632813-2.3125 5.105469-4.800781 7.320313-7.511719zm-104.015625 399.566406h-80v-352h80zm-96-392c0-13.230469 10.769531-24 24-24s24 10.769531 24 24v24h-24c-13.230469 0-24-10.769531-24-24zm88-24c13.230469 0 24 10.769531 24 24s-10.769531 24-24 24h-24v-24c0-13.230469 10.769531-24 24-24zm24-48c26.472656 0 48 21.527344 48 48 0 23.585938-17.105469 43.199219-39.550781 47.207031 4.703125-6.558593 7.550781-14.535156 7.550781-23.207031 0-22.054688-17.945312-40-40-40-8.671875 0-16.648438 2.847656-23.207031 7.550781 4.007812-22.445312 23.621093-39.550781 47.207031-39.550781zm-112 0c23.585938 0 43.199219 17.105469 47.207031 39.550781-6.558593-4.703125-14.535156-7.550781-23.207031-7.550781-22.054688 0-40 17.945312-40 40 0 8.671875 2.847656 16.648438 7.550781 23.207031-22.445312-4.007812-39.550781-23.621093-39.550781-47.207031 0-26.472656 21.527344-48 48-48zm-81.144531 75.878906-6.871094-11.453125 38.503906 24.0625c2.222657 2.710938 4.695313 5.191407 7.320313 7.511719h-50.496094l10.34375-10.34375c2.601562-2.59375 3.097656-6.625 1.199219-9.777344zm-94.855469 60.121094c0-13.230469 10.769531-24 24-24h152v48h-152c-13.230469 0-24-10.769531-24-24zm32 304v-264h144v288h-120c-13.230469 0-24-10.769531-24-24zm376 24h-120v-288h144v264c0 13.230469-10.769531 24-24 24zm32-304h-152v-48h152c13.230469 0 24 10.769531 24 24s-10.769531 24-24 24zm0 0" data-original="#000000" class="active-path" data-old_color="#ffffff" fill="#ffffff"/></g> </svg>
