<svg height="512pt" viewBox="-68 0 512 512" width="512pt" xmlns="http://www.w3.org/2000/svg"><path d="m0 447.972656v-420.859375c0-14.972656 12.136719-27.10937475 27.109375-27.10937475h320.832031c14.972656 0 27.113282 12.13671875 27.113282 27.10937475v457.773438c0 14.972656-12.140626 27.109375-27.113282 27.109375h-272.035156zm0 0" fill="#e6f2ec"/><path d="m375.058594 484.882812v-457.765624c0-14.976563-12.140625-27.117188-27.117188-27.117188h-27.527344c14.976563 0 27.113282 12.140625 27.113282 27.117188v457.765624c0 14.976563-12.136719 27.117188-27.113282 27.117188h27.527344c14.976563 0 27.117188-12.140625 27.117188-27.117188zm0 0" fill="#d5e2db"/><path d="m0 447.972656 75.90625 64.023438v-58.863282c0-2.847656-2.308594-5.160156-5.160156-5.160156zm0 0" fill="#bececc"/><path d="m0 27.117188v113.292968h375.058594v-113.292968c0-14.976563-12.136719-27.117188-27.117188-27.117188h-320.824218c-14.980469 0-27.117188 12.140625-27.117188 27.117188zm0 0" fill="#ff5426"/><path d="m375.058594 27.117188v113.292968h-28.023438v-113.292968c0-14.976563-12.140625-27.117188-27.117187-27.117188h28.023437c14.980469 0 27.117188 12.140625 27.117188 27.117188zm0 0" fill="#f04424"/><path d="m339.183594 442.089844c0 20.898437-16.941406 37.839844-37.839844 37.839844s-37.839844-16.941407-37.839844-37.839844c0-20.898438 16.941406-37.839844 37.839844-37.839844s37.839844 16.941406 37.839844 37.839844zm0 0" fill="#fa0"/><path d="m339.179688 442.089844c0 20.898437-16.941407 37.839844-37.839844 37.839844-8.695313 0-16.707032-2.933594-23.097656-7.867188 2.96875.757812 6.082031 1.148438 9.28125 1.148438 20.894531 0 37.839843-16.933594 37.839843-37.839844 0-12.199219-5.773437-23.054688-14.746093-29.972656 16.414062 4.132812 28.5625 18.992187 28.5625 36.691406zm0 0" fill="#ff9500"/><g fill="#bececc"><path d="m41.085938 191.503906h26.371093c4.277344 0 7.742188-3.464844 7.742188-7.742187 0-4.273438-3.464844-7.742188-7.742188-7.742188h-26.371093c-4.273438 0-7.738282 3.46875-7.738282 7.742188 0 4.277343 3.464844 7.742187 7.738282 7.742187zm0 0"/><path d="m93.144531 183.761719c0 4.277343 3.464844 7.742187 7.742188 7.742187h64.105469c4.277343 0 7.742187-3.464844 7.742187-7.742187 0-4.273438-3.464844-7.738281-7.742187-7.738281h-64.105469c-4.277344-.003907-7.742188 3.464843-7.742188 7.738281zm0 0"/><path d="m200.773438 191.503906h20.644531c4.277343 0 7.742187-3.464844 7.742187-7.742187 0-4.273438-3.464844-7.742188-7.742187-7.742188h-20.644531c-4.273438 0-7.738282 3.46875-7.738282 7.742188 0 4.277343 3.464844 7.742187 7.738282 7.742187zm0 0"/><path d="m257.367188 191.503906h20.644531c4.273437 0 7.742187-3.464844 7.742187-7.742187 0-4.273438-3.46875-7.742188-7.742187-7.742188h-20.644531c-4.277344 0-7.742188 3.46875-7.742188 7.742188 0 4.277343 3.46875 7.742187 7.742188 7.742187zm0 0"/><path d="m313.328125 191.503906h20.644531c4.273438 0 7.742188-3.464844 7.742188-7.742187 0-4.273438-3.46875-7.742188-7.742188-7.742188h-20.644531c-4.277344 0-7.742187 3.46875-7.742187 7.742188 0 4.277343 3.464843 7.742187 7.742187 7.742187zm0 0"/><path d="m41.085938 230.726562h26.371093c4.277344 0 7.742188-3.464843 7.742188-7.742187 0-4.273437-3.464844-7.738281-7.742188-7.738281h-26.371093c-4.273438 0-7.738282 3.464844-7.738282 7.738281 0 4.277344 3.464844 7.742187 7.738282 7.742187zm0 0"/><path d="m100.886719 230.726562h64.105469c4.277343 0 7.742187-3.464843 7.742187-7.742187 0-4.273437-3.464844-7.738281-7.742187-7.738281h-64.105469c-4.277344 0-7.742188 3.464844-7.742188 7.738281 0 4.277344 3.464844 7.742187 7.742188 7.742187zm0 0"/><path d="m200.773438 230.726562h20.644531c4.277343 0 7.742187-3.464843 7.742187-7.742187 0-4.273437-3.464844-7.738281-7.742187-7.738281h-20.644531c-4.273438 0-7.738282 3.464844-7.738282 7.738281 0 4.277344 3.464844 7.742187 7.738282 7.742187zm0 0"/><path d="m257.367188 230.726562h20.644531c4.273437 0 7.742187-3.464843 7.742187-7.742187 0-4.273437-3.46875-7.738281-7.742187-7.738281h-20.644531c-4.277344 0-7.742188 3.464844-7.742188 7.738281 0 4.277344 3.46875 7.742187 7.742188 7.742187zm0 0"/><path d="m313.328125 230.726562h20.644531c4.273438 0 7.742188-3.464843 7.742188-7.742187 0-4.273437-3.46875-7.738281-7.742188-7.738281h-20.644531c-4.277344 0-7.742187 3.464844-7.742187 7.738281 0 4.277344 3.464843 7.742187 7.742187 7.742187zm0 0"/><path d="m75.199219 262.207031c0-4.273437-3.464844-7.738281-7.742188-7.738281h-26.371093c-4.273438 0-7.738282 3.464844-7.738282 7.738281 0 4.277344 3.464844 7.742188 7.738282 7.742188h26.371093c4.277344 0 7.742188-3.464844 7.742188-7.742188zm0 0"/><path d="m100.886719 269.949219h64.105469c4.277343 0 7.742187-3.464844 7.742187-7.742188 0-4.273437-3.464844-7.738281-7.742187-7.738281h-64.105469c-4.277344 0-7.742188 3.464844-7.742188 7.738281 0 4.277344 3.464844 7.742188 7.742188 7.742188zm0 0"/><path d="m200.773438 269.949219h20.644531c4.277343 0 7.742187-3.464844 7.742187-7.742188 0-4.273437-3.464844-7.738281-7.742187-7.738281h-20.644531c-4.273438 0-7.738282 3.464844-7.738282 7.738281 0 4.277344 3.464844 7.742188 7.738282 7.742188zm0 0"/><path d="m257.367188 269.949219h20.644531c4.273437 0 7.742187-3.464844 7.742187-7.742188 0-4.273437-3.46875-7.738281-7.742187-7.738281h-20.644531c-4.277344 0-7.742188 3.464844-7.742188 7.738281 0 4.277344 3.46875 7.742188 7.742188 7.742188zm0 0"/><path d="m313.328125 269.949219h20.644531c4.273438 0 7.742188-3.464844 7.742188-7.742188 0-4.273437-3.46875-7.738281-7.742188-7.738281h-20.644531c-4.277344 0-7.742187 3.464844-7.742187 7.738281 0 4.277344 3.464843 7.742188 7.742187 7.742188zm0 0"/><path d="m79.695312 336.898438v-22.203126c8.453126.628907 11.355469 4.667969 14.890626 4.667969 4.667968 0 6.6875-5.804687 6.6875-8.707031 0-7.316406-13.375-9.714844-21.578126-9.96875v-3.28125c0-1.636719-2.144531-3.152344-4.289062-3.152344-2.398438 0-4.289062 1.515625-4.289062 3.152344v3.535156c-12.617188 1.640625-24.476563 8.578125-24.476563 24.605469 0 16.148437 12.996094 21.066406 24.476563 25.359375v25.105469c-11.101563-1.257813-14.886719-9.460938-19.683594-9.460938-3.910156 0-7.066406 5.300781-7.066406 8.832031 0 7.066407 11.484374 15.265626 26.75 15.644532v3.535156c0 1.636719 1.890624 3.152344 4.289062 3.152344 2.144531 0 4.289062-1.515625 4.289062-3.152344v-3.914062c14.132813-2.269532 23.847657-11.226563 23.847657-26.746094 0-17.160156-12.617188-22.839844-23.847657-27.003906zm-7.570312-2.773438c-5.804688-2.273438-10.09375-4.667969-10.09375-10.222656 0-4.792969 3.785156-7.820313 10.09375-8.832032zm6.5625 41.761719v-21.953125c5.425781 2.398437 9.460938 5.425781 9.460938 11.609375 0 5.929687-3.910157 9.210937-9.460938 10.34375zm0 0"/><path d="m203.113281 308.09375h-61.617187c-4.273438 0-7.738282 3.464844-7.738282 7.742188 0 4.273437 3.464844 7.742187 7.738282 7.742187h61.617187c4.273438 0 7.738281-3.46875 7.738281-7.742187 0-4.277344-3.464843-7.742188-7.738281-7.742188zm0 0"/><path d="m238.46875 323.578125h62.871094c4.277344 0 7.742187-3.46875 7.742187-7.742187 0-4.273438-3.464843-7.742188-7.742187-7.742188h-62.871094c-4.273438 0-7.738281 3.464844-7.738281 7.742188 0 4.273437 3.464843 7.742187 7.738281 7.742187zm0 0"/><path d="m133.753906 349.71875c0 4.273438 3.46875 7.742188 7.742188 7.742188h136.980468c4.273438 0 7.738282-3.46875 7.738282-7.742188s-3.464844-7.742188-7.738282-7.742188h-136.980468c-4.273438 0-7.742188 3.464844-7.742188 7.742188zm0 0"/><path d="m183.472656 376.089844h-41.976562c-4.273438 0-7.738282 3.464844-7.738282 7.738281 0 4.277344 3.464844 7.742187 7.738282 7.742187h41.976562c4.277344 0 7.742188-3.464843 7.742188-7.742187 0-4.273437-3.464844-7.738281-7.742188-7.738281zm0 0"/><path d="m263.566406 383.828125c0-4.273437-3.464844-7.738281-7.742187-7.738281h-36.484375c-4.277344 0-7.742188 3.464844-7.742188 7.738281 0 4.277344 3.464844 7.742187 7.742188 7.742187h36.484375c4.277343 0 7.742187-3.464843 7.742187-7.742187zm0 0"/></g><path d="m155.058594 36.285156c0-3.179687-1.476563-6.585937-4.65625-6.585937h-48.03125c-3.175782 0-4.652344 3.40625-4.652344 6.585937 0 3.632813 1.703125 6.699219 4.652344 6.699219h16.691406v65.0625c0 3.0625 3.636719 4.652344 7.382812 4.652344 3.632813 0 7.378907-1.589844 7.378907-4.652344v-65.0625h16.578125c2.953125 0 4.65625-3.179687 4.65625-6.699219zm0 0" fill="#e6f2ec"/><path d="m191.84375 34.015625c-1.019531-3.40625-5.222656-4.996094-9.535156-4.996094-4.203125 0-8.40625 1.589844-9.425782 4.996094l-21.914062 71.417969c-.113281.453125-.226562.90625-.226562 1.132812 0 3.636719 5.335937 6.132813 9.308593 6.132813 2.5 0 4.429688-.792969 4.996094-2.953125l4.316406-15.097656h26l4.316407 15.097656c.5625 2.160156 2.496093 2.953125 4.996093 2.953125 3.972657 0 9.308594-2.609375 9.308594-6.132813 0-.339844-.113281-.679687-.226563-1.132812zm-19.414062 49.050781 9.878906-34.859375 9.878906 34.859375zm0 0" fill="#e6f2ec"/><path d="m256.675781 71.144531 18.960938-31.90625c.683593-1.136719 1.023437-2.15625 1.023437-3.179687 0-3.972656-5.222656-6.925782-9.425781-6.925782-2.382813 0-3.859375 1.25-4.996094 3.179688l-15.441406 27.816406-15.4375-27.816406c-1.023437-1.929688-2.613281-3.179688-4.882813-3.179688-4.203124 0-9.425781 2.953126-9.425781 6.925782 0 1.023437.339844 2.042968 1.019531 3.179687l18.964844 31.90625-19.644531 32.015625c-.566406 1.023438-.90625 1.933594-.90625 2.726563 0 4.089843 5.675781 7.382812 9.648437 7.382812 1.816407 0 3.292969-1.023437 4.089844-2.386719l16.574219-29.179687 16.695313 29.179687c.679687 1.363282 2.15625 2.386719 3.972656 2.386719 4.085937 0 9.652344-3.292969 9.652344-7.382812 0-.792969-.230469-1.703125-.796876-2.726563zm0 0" fill="#e6f2ec"/></svg>