<svg height="512pt" viewBox="0 0 512 512" width="512pt" xmlns="http://www.w3.org/2000/svg"><path d="m104.621094 253.160156h151.378906v145.878906h-151.378906zm0 0" fill="#f4d553"/><path d="m256 253.160156h151.378906v145.878906h-151.378906zm0 0" fill="#f4d553"/><path d="m256 253.160156h13.949219v145.878906h-13.949219zm0 0" fill="#f2a755"/><path d="m0 399.039062h512v46.296876h-512zm0 0" fill="#1a414c"/><path d="m0 178.449219h512v46.296875h-512zm0 0" fill="#1a414c"/><path d="m26.652344 0h46.296875v512h-46.296875zm0 0" fill="#2e5968"/><path d="m439.050781 0h46.296875v512h-46.296875zm0 0" fill="#2e5968"/><path d="m104.621094 32.570312h151.382812v145.875h-151.382812zm0 0" fill="#aa6952"/><path d="m256.003906 32.570312h151.375v145.875h-151.375zm0 0" fill="#aa6952"/><g fill="#89412b"><path d="m256.003906 32.570312h12.242188v145.875h-12.242188zm0 0"/><path d="m407.378906 32.570312v10.886719l-70.246094 67.699219c-1.527343 1.460938-3.480468 2.191406-5.445312 2.191406-1.953125 0-3.917969-.730468-5.433594-2.191406l-70.25-67.699219v-10.886719h11.285156l64.398438 62.054688 64.398438-62.054688zm0 0"/><path d="m256.003906 32.570312v10.875l-70.257812 67.710938c-1.515625 1.460938-3.480469 2.191406-5.433594 2.191406-1.964844 0-3.917969-.730468-5.445312-2.191406l-70.246094-67.699219v-10.886719h11.292968l64.398438 62.054688 64.398438-62.054688zm0 0"/></g><path d="m360.539062 337.332031-28.851562-19.621093-28.851562 19.621093v-84.171875h57.703124zm0 0" fill="#f7526e"/><path d="m209.164062 337.332031-28.851562-19.621093-28.851562 19.621093v-84.171875h57.703124zm0 0" fill="#f7526e"/></svg>